<svg width="20" height="21" viewBox="0 0 20 21" fill="none" xmlns="http://www.w3.org/2000/svg">
<mask id="mask0_418_799" style="mask-type:luminance" maskUnits="userSpaceOnUse" x="0" y="4" width="20" height="17">
<path fill-rule="evenodd" clip-rule="evenodd" d="M0 4.5401H19.5859V20.7217H0V4.5401Z" fill="white"/>
</mask>
<g mask="url(#mask0_418_799)">
<path fill-rule="evenodd" clip-rule="evenodd" d="M4.7155 6.0401C4.2745 6.0401 2.8005 6.2181 2.3775 8.5021L1.6055 14.5021C1.3545 16.1851 1.5485 17.4031 2.1835 18.1401C2.8105 18.8681 3.9325 19.2221 5.6125 19.2221H13.9605C15.0085 19.2221 16.4395 19.0131 17.3035 18.0151C17.9895 17.2241 18.2255 16.0461 18.0055 14.5131L17.2265 8.4611C16.8945 6.9701 16.0185 6.0401 14.8945 6.0401H4.7155ZM13.9605 20.7221H5.6125C3.4695 20.7221 1.9765 20.1971 1.0475 19.1181C0.1145 18.0361 -0.1975 16.4131 0.1205 14.2951L0.8965 8.2691C1.4065 5.5061 3.2715 4.5401 4.7155 4.5401H14.8945C16.3445 4.5401 18.1075 5.5031 18.7025 8.2041L19.4915 14.3111C19.7745 16.2821 19.4205 17.8631 18.4375 18.9971C17.4595 20.1251 15.9115 20.7221 13.9605 20.7221Z" fill="black"/>
</g>
<path fill-rule="evenodd" clip-rule="evenodd" d="M14.0978 5.82031C13.6838 5.82031 13.3478 5.48431 13.3478 5.07031C13.3478 3.10131 11.7458 1.50031 9.77781 1.50031H9.76281C8.82181 1.50031 7.90481 1.87931 7.23981 2.54031C6.57181 3.20531 6.18881 4.12831 6.18881 5.07031C6.18881 5.48431 5.85281 5.82031 5.43881 5.82031C5.02481 5.82031 4.68881 5.48431 4.68881 5.07031C4.68881 3.73131 5.23281 2.42231 6.18081 1.47731C7.12581 0.538305 8.42881 0.000305176 9.75981 0.000305176H9.78081C12.5738 0.000305176 14.8478 2.27431 14.8478 5.07031C14.8478 5.48431 14.5118 5.82031 14.0978 5.82031Z" fill="black"/>
<path fill-rule="evenodd" clip-rule="evenodd" d="M12.7433 10.3242H12.6973C12.2833 10.3242 11.9473 9.98822 11.9473 9.57422C11.9473 9.16022 12.2833 8.82422 12.6973 8.82422C13.1113 8.82422 13.4703 9.16022 13.4703 9.57422C13.4703 9.98822 13.1573 10.3242 12.7433 10.3242Z" fill="black"/>
<path fill-rule="evenodd" clip-rule="evenodd" d="M6.91219 10.3242H6.86719C6.45319 10.3242 6.11719 9.98822 6.11719 9.57422C6.11719 9.16022 6.45319 8.82422 6.86719 8.82422C7.28119 8.82422 7.64019 9.16022 7.64019 9.57422C7.64019 9.98822 7.32619 10.3242 6.91219 10.3242Z" fill="black"/>
</svg>
